<svg width="119" height="12" viewBox="0 0 119 12" fill="none" xmlns="http://www.w3.org/2000/svg">
<path d="M0.780685 9V3.12388H2.69462C3.07517 3.12388 3.41095 3.20223 3.70196 3.35892C3.99856 3.51562 4.22801 3.73388 4.3903 4.01369C4.55819 4.29351 4.64214 4.61809 4.64214 4.98745C4.64214 5.34561 4.56659 5.6646 4.41549 5.94442C4.26439 6.22423 4.05732 6.44529 3.7943 6.60758C3.53127 6.76428 3.22627 6.84262 2.8793 6.84262H1.49421V9H0.780685ZM1.49421 6.19625H2.8793C3.1871 6.19625 3.43893 6.08432 3.6348 5.86047C3.83627 5.63102 3.937 5.34002 3.937 4.98745C3.937 4.62369 3.81948 4.32988 3.58443 4.10603C3.34939 3.88218 3.04999 3.77025 2.68623 3.77025H1.49421V6.19625ZM8.14348 9.10073C7.57825 9.10073 7.07738 8.97202 6.64087 8.71459C6.20436 8.45716 5.86298 8.09899 5.61675 7.6401C5.37051 7.1812 5.24739 6.65515 5.24739 6.06194C5.24739 5.46313 5.36771 4.93708 5.60835 4.48378C5.85459 4.02488 6.19317 3.66672 6.62408 3.40929C7.055 3.15186 7.55307 3.02315 8.11829 3.02315C8.68352 3.02315 9.18159 3.15466 9.61251 3.41768C10.049 3.67511 10.3876 4.03328 10.6282 4.49218C10.8689 4.94548 10.9892 5.46873 10.9892 6.06194C10.9892 6.65515 10.8689 7.1812 10.6282 7.6401C10.3876 8.09899 10.0518 8.45716 9.6209 8.71459C9.19558 8.97202 8.70311 9.10073 8.14348 9.10073ZM8.14348 8.45436C8.5632 8.45436 8.93256 8.35363 9.25155 8.15216C9.57054 7.9451 9.81957 7.66248 9.99865 7.30432C10.1833 6.94616 10.2757 6.53203 10.2757 6.06194C10.2757 5.59745 10.1833 5.18612 9.99865 4.82795C9.81398 4.46419 9.55934 4.18158 9.23476 3.98011C8.91577 3.77305 8.54361 3.66952 8.11829 3.66952C7.69857 3.66952 7.32642 3.77305 7.00183 3.98011C6.67725 4.18158 6.42261 4.46419 6.23794 4.82795C6.05326 5.18612 5.96092 5.59745 5.96092 6.06194C5.96092 6.53203 6.05326 6.94616 6.23794 7.30432C6.42261 7.66248 6.68004 7.9451 7.01023 8.15216C7.34041 8.35363 7.71816 8.45436 8.14348 8.45436ZM16.7527 9L18.5659 3.12388H19.2794L17.4578 9H16.7527ZM13.1766 9L11.3802 3.12388H12.0937L13.8734 9H13.1766ZM13.2522 9L14.9814 3.12388H15.6614L13.9321 9H13.2522ZM16.6939 9L15.0066 3.12388H15.6866L17.399 9H16.6939ZM20.1437 9V3.12388H23.619V3.77025H20.8572V5.6674H23.3756V6.30538H20.8572V8.35363H23.6358V9H20.1437ZM25.1115 9V3.12388H27.0254C27.406 3.12388 27.7418 3.19943 28.0328 3.35053C28.3294 3.50163 28.5588 3.71149 28.7211 3.98011C28.889 4.24874 28.973 4.55653 28.973 4.9035C28.973 5.25047 28.8834 5.55827 28.7043 5.82689C28.5252 6.09552 28.2818 6.30818 27.974 6.46487C27.6662 6.61597 27.3192 6.69152 26.9331 6.69152H25.825V9H25.1115ZM28.4273 9L27.017 6.59079L27.5795 6.22143L29.208 9H28.4273ZM25.825 6.03676H27.1262C27.3388 6.03676 27.5291 5.98919 27.697 5.89405C27.8649 5.79332 27.9992 5.65901 28.0999 5.49112C28.2063 5.31763 28.2594 5.12176 28.2594 4.9035C28.2594 4.56773 28.1419 4.2963 27.9069 4.08924C27.6774 3.87658 27.378 3.77025 27.0086 3.77025H25.825V6.03676ZM30.3662 9V3.12388H33.8415V3.77025H31.0798V5.6674H33.5981V6.30538H31.0798V8.35363H33.8583V9H30.3662ZM35.334 9V3.12388H37.1221C37.6761 3.12388 38.163 3.2498 38.5827 3.50163C39.008 3.74787 39.341 4.09204 39.5816 4.53415C39.8223 4.97626 39.9426 5.48552 39.9426 6.06194C39.9426 6.63276 39.8223 7.13923 39.5816 7.58134C39.341 8.02344 39.008 8.37042 38.5827 8.62225C38.163 8.87408 37.6761 9 37.1221 9H35.334ZM36.0476 8.34523H37.1221C37.4187 8.34523 37.6929 8.28927 37.9447 8.17734C38.1966 8.05982 38.4176 7.89473 38.6079 7.68207C38.8038 7.46941 38.9549 7.22597 39.0612 6.95175C39.1731 6.67194 39.2291 6.37533 39.2291 6.06194C39.2291 5.74855 39.1731 5.45474 39.0612 5.18052C38.9549 4.90071 38.8038 4.65447 38.6079 4.44181C38.4176 4.22915 38.1966 4.06686 37.9447 3.95493C37.6929 3.83741 37.4187 3.77865 37.1221 3.77865H36.0476V8.34523ZM43.1875 9V3.12388H45.0426C45.4456 3.12388 45.7897 3.18544 46.0752 3.30856C46.3606 3.43168 46.5816 3.61356 46.7383 3.8542C46.895 4.08924 46.9734 4.37745 46.9734 4.71883C46.9734 5.00424 46.909 5.25607 46.7803 5.47433C46.6516 5.68699 46.4697 5.86047 46.2346 5.99478C46.5257 6.13469 46.7495 6.32217 46.9062 6.55721C47.0685 6.79226 47.1496 7.07207 47.1496 7.39666C47.1496 7.73803 47.0741 8.02904 46.923 8.26968C46.7719 8.50473 46.5564 8.68661 46.2766 8.81532C46.0024 8.93844 45.6722 9 45.2861 9H43.1875ZM43.8926 8.36202H45.2525C45.6219 8.36202 45.9101 8.27528 46.1171 8.10179C46.3298 7.92271 46.4361 7.67927 46.4361 7.37147C46.4361 7.04129 46.3158 6.78386 46.0752 6.59918C45.8345 6.40891 45.4987 6.31377 45.0678 6.31377H43.8926V8.36202ZM43.8926 5.70098H45.2189C45.5435 5.70098 45.7981 5.61423 45.9828 5.44075C46.1675 5.26726 46.2598 5.02662 46.2598 4.71883C46.2598 4.39984 46.1507 4.1564 45.9324 3.98851C45.7198 3.81502 45.4176 3.72828 45.0258 3.72828H43.8926V5.70098ZM50.4178 6.55721L49.805 6.26341L51.719 3.12388H52.5332L50.4178 6.55721ZM49.7211 9V6.17946H50.4262V9H49.7211ZM49.7295 6.55721L47.6141 3.12388H48.4367L50.3423 6.26341L49.7295 6.55721Z" fill="#737C87"/>
<path d="M68.522 5.40677C68.2968 2.97942 66.2532 1.08594 63.7674 1.08594C61.1315 1.08594 58.9961 3.22132 58.9961 5.85721C58.9961 8.02597 60.4392 9.85274 62.4161 10.4366C62.8415 10.5618 63.3003 10.6285 63.7674 10.6285C64.2345 10.6285 64.6933 10.5618 65.1187 10.4366C65.3273 10.3783 65.5275 10.3032 65.7193 10.2114L66.9371 10.9121V8.45139C66.9205 8.45973 66.8954 8.47641 66.8788 8.48475C66.8287 8.51812 66.7787 8.54314 66.7203 8.57651C66.6535 8.61821 66.5868 8.65158 66.5117 8.69329C66.445 8.73499 66.3699 8.7767 66.3032 8.81841C66.1781 8.89348 66.053 8.96021 65.9278 9.03528C65.8694 9.06865 65.8194 9.10202 65.761 9.13538C65.736 9.15206 65.711 9.16875 65.6776 9.18543C65.5942 9.23548 65.5024 9.27719 65.419 9.31889C64.9853 9.52743 64.5098 9.65255 64.0093 9.68591C63.9259 9.69425 63.8508 9.69426 63.7674 9.69426C63.684 9.69426 63.6006 9.69425 63.5255 9.68591C61.5152 9.56079 59.922 7.89251 59.922 5.84052C59.922 3.71347 61.6487 1.99515 63.7674 1.99515C65.7443 1.99515 67.3626 3.4799 67.5878 5.39009H65.8361V4.94799C65.8361 4.63102 65.5775 4.38078 65.2689 4.38078H61.974C61.657 4.38078 61.4068 4.63936 61.4068 4.94799V6.77476C61.4068 7.09174 61.6653 7.34198 61.974 7.34198H65.2605C65.5775 7.34198 65.8277 7.08339 65.8277 6.77476V6.31598H68.5137C68.522 6.24925 68.522 6.19086 68.5304 6.12413V5.59862C68.5304 5.53189 68.5304 5.4735 68.522 5.40677ZM62.8665 6.37437C62.5829 6.37437 62.3494 6.14082 62.3494 5.85721C62.3494 5.5736 62.5829 5.34838 62.8665 5.34838C63.1501 5.34838 63.3837 5.58194 63.3837 5.85721C63.3754 6.14082 63.1501 6.37437 62.8665 6.37437ZM64.3847 6.37437C64.1011 6.37437 63.8675 6.14082 63.8675 5.85721C63.8675 5.5736 64.1011 5.34838 64.3847 5.34838C64.6683 5.34838 64.9018 5.58194 64.9018 5.85721C64.9018 6.14082 64.6683 6.37437 64.3847 6.37437Z" fill="#737C87"/>
<path d="M75.719 9V8.34523L79.4209 3.77865H75.7441V3.12388H80.3107V3.77865L76.6088 8.34523H80.2855V9H75.719ZM83.8752 9L83.8416 8.31165V6.78386C83.8416 6.45368 83.8053 6.18226 83.7325 5.9696C83.6598 5.75134 83.545 5.58625 83.3883 5.47433C83.2316 5.3624 83.0274 5.30644 82.7755 5.30644C82.5461 5.30644 82.3474 5.35401 82.1795 5.44914C82.0172 5.53868 81.8829 5.68419 81.7766 5.88566L81.1722 5.65061C81.2785 5.45474 81.4073 5.28685 81.5584 5.14694C81.7095 5.00144 81.8857 4.89231 82.0872 4.81956C82.2887 4.74121 82.5181 4.70204 82.7755 4.70204C83.1673 4.70204 83.4891 4.78039 83.7409 4.93708C83.9983 5.08818 84.1914 5.31483 84.3201 5.61703C84.4488 5.91364 84.5104 6.28299 84.5048 6.7251L84.4964 9H83.8752ZM82.6161 9.10073C82.1236 9.10073 81.7374 8.98881 81.4576 8.76496C81.1834 8.53551 81.0463 8.21932 81.0463 7.81638C81.0463 7.39106 81.1862 7.06648 81.466 6.84262C81.7514 6.61318 82.1488 6.49845 82.658 6.49845H83.8584V7.06088H82.8091C82.4174 7.06088 82.1376 7.12524 81.9697 7.25395C81.8074 7.38267 81.7262 7.56735 81.7262 7.80799C81.7262 8.02624 81.8074 8.19973 81.9697 8.32844C82.132 8.45156 82.3586 8.51312 82.6496 8.51312C82.8903 8.51312 83.1001 8.46275 83.2792 8.36202C83.4583 8.25569 83.5954 8.10739 83.6905 7.91711C83.7913 7.72124 83.8416 7.4918 83.8416 7.22877H84.1271C84.1271 7.79959 83.9983 8.25569 83.7409 8.59707C83.4835 8.93284 83.1085 9.10073 82.6161 9.10073ZM85.5689 9V4.80277H86.1985L86.2405 5.57506V9H85.5689ZM88.5154 9V6.85102H89.1869V9H88.5154ZM88.5154 6.85102C88.5154 6.43689 88.4678 6.1207 88.3727 5.90244C88.2775 5.68419 88.146 5.53589 87.9781 5.45754C87.8103 5.37359 87.62 5.33162 87.4073 5.33162C87.038 5.33162 86.7498 5.46313 86.5427 5.72616C86.3412 5.98359 86.2405 6.35015 86.2405 6.82584H85.9131C85.9131 6.38373 85.9775 6.00318 86.1062 5.68419C86.2349 5.3652 86.4224 5.12176 86.6686 4.95387C86.9148 4.78598 87.2115 4.70204 87.5584 4.70204C87.8886 4.70204 88.174 4.76919 88.4147 4.9035C88.6609 5.03222 88.8512 5.23928 88.9855 5.52469C89.1254 5.81011 89.1925 6.18506 89.1869 6.64955V6.85102H88.5154ZM93.3558 9L93.3222 8.21932V3.12388H93.9938V9H93.3558ZM91.9035 9.10073C91.5286 9.10073 91.1984 9.00839 90.913 8.82372C90.6276 8.63904 90.4037 8.38161 90.2414 8.05143C90.0847 7.71565 90.0064 7.3323 90.0064 6.90139C90.0064 6.46487 90.0847 6.08153 90.2414 5.75134C90.4037 5.42116 90.6276 5.16373 90.913 4.97905C91.1984 4.79438 91.5286 4.70204 91.9035 4.70204C92.2561 4.70204 92.5639 4.79438 92.8269 4.97905C93.0956 5.16373 93.3026 5.42116 93.4481 5.75134C93.5936 6.08153 93.6664 6.46487 93.6664 6.90139C93.6664 7.3323 93.5936 7.71565 93.4481 8.05143C93.3026 8.38161 93.0956 8.63904 92.8269 8.82372C92.5639 9.00839 92.2561 9.10073 91.9035 9.10073ZM92.0546 8.48794C92.3009 8.48794 92.5191 8.42078 92.7094 8.28647C92.8997 8.15216 93.048 7.96468 93.1543 7.72404C93.2662 7.4834 93.3222 7.20918 93.3222 6.90139C93.3222 6.59359 93.2662 6.31937 93.1543 6.07873C93.048 5.83809 92.8997 5.65061 92.7094 5.5163C92.5191 5.38199 92.2981 5.31483 92.0462 5.31483C91.7832 5.31483 91.5482 5.38199 91.3411 5.5163C91.1396 5.65061 90.9801 5.83809 90.8626 6.07873C90.7451 6.31937 90.6863 6.59359 90.6863 6.90139C90.6863 7.20918 90.7451 7.4834 90.8626 7.72404C90.9801 7.96468 91.1424 8.15216 91.3495 8.28647C91.5566 8.42078 91.7916 8.48794 92.0546 8.48794ZM97.0068 9.10073C96.5983 9.10073 96.2374 9.00839 95.924 8.82372C95.6106 8.63344 95.3643 8.37321 95.1852 8.04303C95.0118 7.71285 94.925 7.3323 94.925 6.90139C94.925 6.47047 95.0118 6.08992 95.1852 5.75974C95.3643 5.42956 95.6078 5.17213 95.9156 4.98745C96.229 4.79717 96.5871 4.70204 96.9901 4.70204C97.3818 4.70204 97.7204 4.79997 98.0058 4.99584C98.2912 5.18612 98.5123 5.45474 98.6689 5.80171C98.8256 6.14868 98.904 6.55721 98.904 7.0273H95.4371L95.605 6.8846C95.605 7.22037 95.6637 7.50858 95.7813 7.74923C95.9044 7.98987 96.0751 8.17454 96.2933 8.30326C96.5116 8.42638 96.7606 8.48794 97.0404 8.48794C97.337 8.48794 97.5861 8.41798 97.7875 8.27808C97.9946 8.13817 98.1541 7.95349 98.266 7.72404L98.8452 8.01785C98.7389 8.2361 98.5962 8.42638 98.4171 8.58867C98.2436 8.75096 98.0366 8.87688 97.7959 8.96642C97.5609 9.05596 97.2979 9.10073 97.0068 9.10073ZM95.6469 6.59918L95.4707 6.46487H98.3667L98.1905 6.60758C98.1905 6.33896 98.1373 6.10671 98.031 5.91084C97.9246 5.71497 97.7819 5.56387 97.6029 5.45754C97.4238 5.35121 97.2167 5.29804 96.9817 5.29804C96.7522 5.29804 96.534 5.35121 96.3269 5.45754C96.1254 5.56387 95.9603 5.71497 95.8316 5.91084C95.7085 6.10111 95.6469 6.33056 95.6469 6.59918ZM100.12 6.7251C100.12 6.2718 100.207 5.90524 100.381 5.62543C100.554 5.34002 100.775 5.13015 101.044 4.99584C101.318 4.85594 101.606 4.78598 101.908 4.78598V5.41557C101.662 5.41557 101.424 5.45754 101.195 5.54148C100.971 5.61983 100.786 5.75134 100.641 5.93602C100.495 6.1207 100.423 6.37253 100.423 6.69152L100.12 6.7251ZM99.751 9V4.80277H100.423V9H99.751ZM102.629 9V4.80277H103.301V9H102.629ZM102.974 3.82901C102.862 3.82901 102.764 3.78704 102.68 3.7031C102.596 3.61915 102.554 3.52122 102.554 3.40929C102.554 3.29177 102.596 3.19383 102.68 3.11548C102.764 3.03154 102.862 2.98957 102.974 2.98957C103.091 2.98957 103.189 3.03154 103.267 3.11548C103.351 3.19383 103.393 3.29177 103.393 3.40929C103.393 3.52122 103.351 3.61915 103.267 3.7031C103.189 3.78704 103.091 3.82901 102.974 3.82901ZM106.394 9.10073C105.985 9.10073 105.621 9.00839 105.302 8.82372C104.989 8.63344 104.743 8.37321 104.564 8.04303C104.385 7.71285 104.295 7.3323 104.295 6.90139C104.295 6.47047 104.382 6.08992 104.555 5.75974C104.734 5.42956 104.981 5.17213 105.294 4.98745C105.613 4.79717 105.974 4.70204 106.377 4.70204C106.791 4.70204 107.155 4.79717 107.468 4.98745C107.787 5.17213 108.033 5.42956 108.207 5.75974C108.386 6.08992 108.475 6.47047 108.475 6.90139C108.475 7.3323 108.386 7.71285 108.207 8.04303C108.033 8.37321 107.79 8.63344 107.477 8.82372C107.163 9.00839 106.802 9.10073 106.394 9.10073ZM106.394 8.47954C106.673 8.47954 106.917 8.41239 107.124 8.27808C107.331 8.14377 107.493 7.95909 107.611 7.72404C107.734 7.489 107.795 7.21478 107.795 6.90139C107.795 6.58799 107.734 6.31377 107.611 6.07873C107.493 5.84368 107.328 5.65901 107.116 5.52469C106.903 5.39038 106.657 5.32323 106.377 5.32323C106.103 5.32323 105.859 5.39038 105.647 5.52469C105.439 5.65901 105.274 5.84368 105.151 6.07873C105.034 6.31377 104.975 6.58799 104.975 6.90139C104.975 7.20918 105.034 7.4834 105.151 7.72404C105.274 7.95909 105.442 8.14377 105.655 8.27808C105.873 8.41239 106.119 8.47954 106.394 8.47954ZM109.693 9.11752C109.565 9.11752 109.453 9.07275 109.358 8.98321C109.268 8.88807 109.223 8.77895 109.223 8.65583C109.223 8.52711 109.268 8.41798 109.358 8.32844C109.453 8.23331 109.565 8.18574 109.693 8.18574C109.822 8.18574 109.931 8.23331 110.021 8.32844C110.11 8.41798 110.155 8.52711 110.155 8.65583C110.155 8.77895 110.11 8.88807 110.021 8.98321C109.931 9.07275 109.822 9.11752 109.693 9.11752ZM115.418 9L113.06 3.12388H113.773L116.165 9H115.418ZM110.642 9L113.034 3.12388H113.756L111.397 9H110.642ZM111.775 7.3295V6.69152H115.041V7.3295H111.775ZM117.028 9V3.12388H117.742V9H117.028Z" fill="#737C87"/>
</svg>
